# xmcd
#
# Track frame offsets: 
#        150
#        17535
#        32960
#        50919
#        65510
#        80205
#        94029
#
# Disc length: 1513 seconds
#
# Revision: 1
# Processed by: cddbd v1.5.2PL0 Copyright (c) Steve Scherf et al.
# Submitted via: ExactAudioCopy v0.95b2
#
DISCID=5c05e707
DTITLE=Various Artist - A Taste of Alligator
DYEAR=2004
DGENRE=Blues
TTITLE0=Mavis Staples/A Dying Man's Plea 
TTITLE1=The Holmes Brothers/Run Myself Out Of Town 
TTITLE2=Guitar Shorty/Old School 
TTITLE3=Carey and Lurrie Bell/The Road is So Long 
TTITLE4=W.C. Clark/Cold Blooded Lover 
TTITLE5=Kenny Neal and Billy Branch/I Just Keep Loving Her 
TTITLE6=Hound Dog Taylor/She's Gone 
EXTD=YEAR: 2004
EXTT0=
EXTT1=
EXTT2=
EXTT3=
EXTT4=
EXTT5=
EXTT6=
PLAYORDER=
